<svg version="1.1" id="Layer_1" xmlns="http://www.w3.org/2000/svg" x="0" y="0" viewBox="0 0 132 132" style="enable-background:new 0 0 132 132" xml:space="preserve"><style>.st1{fill:#fff;stroke:#162b41;stroke-width:1.5;stroke-miterlimit:10}</style><radialGradient id="SVGID_1_" cx="-21.562" cy="125.43" r="150.303" gradientUnits="userSpaceOnUse"><stop offset="0" style="stop-color:#fd5"/><stop offset=".1" style="stop-color:#017594"/><stop offset=".5" style="stop-color:#384a9f"/><stop offset="1" style="stop-color:#ce4ec8"/></radialGradient><circle cx="66" cy="66" r="63.5" style="fill:url(#SVGID_1_);stroke:#162b41;stroke-width:2;stroke-miterlimit:10"/><path class="st1" d="M80.3 55.5c-5.7-7.9-16.9-9.6-24.8-3.8-7.9 5.7-9.6 16.9-3.8 24.8s16.9 9.6 24.8 3.8c7.9-5.7 9.6-16.9 3.8-24.8zm-8.1 18.8c-4.5 3.4-11.1 2.5-14.5-2.2-3.4-4.5-2.4-11 2.3-14.5 4.5-3.4 11-2.4 14.4 2.3 3.3 4.5 2.4 11-2.2 14.4.1 0 .1 0 0 0z"/><path class="st1" d="M98.2 62.3c-.4-3.8 1.5-7.4 4.9-9.3l2.7-1.5-1.3-2.8c-2.4-5.6-6.1-10.5-10.7-14.6l-2.3-2-2.2 2.1c-2.7 2.6-6.9 3.4-10.3 1.9-3.4-1.4-5.6-5-5.5-8.7l.1-3-3-.4c-6.1-.7-12.3 0-18 2l-2.8 1 .8 2.9c1.3 5-2 10.2-7 11.3-2.3.6-4.9.2-7-1L34 38.7l-1.8 2.4c-3.7 4.9-6.1 10.6-7.3 16.6l-.6 3 2.9.9c3.7 1.1 6.2 4.1 6.6 7.9.4 3.8-1.5 7.4-4.9 9.3l-2.7 1.5 1.2 2.8c2.4 5.6 6 10.5 10.6 14.6l2.3 2 2.2-2.1c2.7-2.6 6.9-3.4 10.3-1.9 3.5 1.5 5.6 5 5.5 8.8l-.1 3.1 3.1.3c3.1.3 6.2.3 9.4 0 3-.3 5.9-1 8.7-2l2.9-1.1-.8-2.9c-1.3-5 1.8-10.2 6.7-11.4 2.4-.6 5.1-.2 7.3 1.1l2.6 1.6 1.8-2.4c3.7-4.9 6-10.7 7.3-16.7l.6-3-2.9-.9c-3.7-1-6.3-4.1-6.7-7.9zm-1.9 22.3C88 81.4 78.7 85.7 75.6 94c-.8 2-1 4.2-.9 6.3-3.2.8-6.6 1.2-9.9 1-.8-5.3-4.4-9.7-9.3-11.9-4.9-2.1-10.5-1.7-15.1 1.2-2.2-2.3-4.3-5-5.8-8 4.1-3.4 6.3-8.6 5.7-13.9-.6-5.3-3.7-9.9-8.5-12.3.9-3.2 2.2-6.3 4-9.1 8.4 3 17.5-1.4 20.6-9.7.7-1.9 1-4 .9-6 3.2-.9 6.6-1.3 9.9-1.1C68.7 39.2 77 45 85.7 43.4c2-.4 4.1-1.2 5.9-2.3 1.2 1.2 2.3 2.5 3.3 3.9s1.8 2.6 2.5 4c-4.1 3.4-6.3 8.6-5.7 13.9.5 5.3 3.8 10 8.6 12.4-1.1 3.3-2.4 6.4-4 9.3z"/></svg>